<?xml version="1.0" encoding="UTF-8"?>
<svg version="1.1" xmlns="http://www.w3.org/2000/svg" width="918" height="918">
<path d="M0 0 C0.88993652 0.41330566 1.77987305 0.82661133 2.69677734 1.25244141 C36.77408274 17.23054187 68.18025711 38.91185669 97 63 C97.5480127 63.45632812 98.09602539 63.91265625 98.66064453 64.3828125 C105.97988074 70.49477307 112.94109685 76.78497687 119.60546875 83.60546875 C121.5886357 85.5886357 123.58709483 87.40825872 125.75 89.1875 C128.92886027 91.82270721 131.52360921 94.79827788 134.19140625 97.94140625 C136.00285098 100.00324507 137.90381369 101.90376712 139.875 103.8125 C143.76682409 107.65203471 147.18108867 111.77565338 150.59765625 116.0390625 C152.64854243 118.56682141 154.75219758 121.03420358 156.88867188 123.48950195 C175.6704311 145.19159569 190.98053551 170.04929003 205 195 C205.4532666 195.80050781 205.9065332 196.60101563 206.37353516 197.42578125 C252.31568433 279.17915619 268.84701501 379.39748125 243.16015625 539.65234375 C236.04899854 564.6235437 227.0013956 588.48714231 216 612 C215.33145996 613.43206787 215.33145996 613.43206787 214.64941406 614.89306641 C196.61995326 653.11579462 172.23119878 689.41948964 143.4140625 720.375 C141.52702615 722.42692302 139.70744322 724.50526757 137.89453125 726.62109375 C133.64462592 731.49396799 129.09178649 736.05872932 124.51196289 740.6184082 C123.06475615 742.06025221 121.62297974 743.50737116 120.18164062 744.95507812 C114.95746009 750.18328802 109.62602108 755.20717726 104 760 C102.95148854 760.92523213 101.90453684 761.85223574 100.859375 762.78125 C86.17445996 775.68410657 70.30878065 787.23876697 54 798 C53.28054199 798.47501953 52.56108398 798.95003906 51.81982422 799.43945312 C39.2571326 807.67532696 26.29154301 815.01139575 13 822 C11.71198486 822.68594238 11.71198486 822.68594238 10.39794922 823.38574219 C-65.37468645 863.56447513 -155.42843636 880.1052412 -249 871 C-250.0607373 870.88172852 -251.12147461 870.76345703 -252.21435547 870.64160156 C-282.67360978 867.21018779 -312.89597053 860.61273978 -342 851 C-343.69745361 850.43974121 -343.69745361 850.43974121 -345.42919922 849.86816406 C-363.09961412 843.95422556 -380.13486586 836.91029195 -397 829 C-397.88558594 828.58814453 -398.77117187 828.17628906 -399.68359375 827.75195312 C-432.28730717 812.46737297 -463.8874693 792.1373088 -491.0703125 768.52734375 C-493.95745387 766.03670312 -496.90286667 763.63817759 -499.875 761.25 C-503.59184174 758.22704044 -507.02541663 755.09560743 -510.3515625 751.65234375 C-512.02008257 749.97986984 -513.75924907 748.46303507 -515.5625 746.9375 C-524.05761635 739.60382534 -532.13097645 731.46581586 -539.37890625 722.8984375 C-541.2809365 720.67099967 -543.2660772 718.52977029 -545.25 716.375 C-550.35676166 710.71334404 -555.0198815 704.74555735 -559.67089844 698.70996094 C-560.85941663 697.18086809 -562.07266253 695.67106997 -563.2890625 694.1640625 C-576.69699562 677.34655188 -588.53918731 658.77571324 -599 640 C-599.48742676 639.13971191 -599.97485352 638.27942383 -600.47705078 637.39306641 C-636.51049037 573.66203363 -656.4024158 500.19598269 -658 427 C-658.02191406 426.0419043 -658.04382813 425.08380859 -658.06640625 424.09667969 C-659.39022579 355.36838168 -645.95169538 286.46856459 -617 224 C-616.53867676 222.99517578 -616.07735352 221.99035156 -615.60205078 220.95507812 C-601.14894166 189.6114578 -583.43233227 160.08977963 -562 133 C-561.47067871 132.32936523 -560.94135742 131.65873047 -560.39599609 130.96777344 C-554.31018986 123.29227112 -548.09012655 115.79646103 -541.4140625 108.625 C-539.53664864 106.58354027 -537.72812188 104.51616821 -535.92578125 102.41015625 C-531.53344425 97.37397211 -526.81718161 92.66698069 -522.0847168 87.9543457 C-520.56508332 86.4400742 -519.05087483 84.9205257 -517.53710938 83.40039062 C-512.19775908 78.05700491 -506.77155065 72.87918321 -501 68 C-499.94372611 67.08756861 -498.88772174 66.17482508 -497.83203125 65.26171875 C-490.40326558 58.92852784 -482.82980227 52.83225495 -475 47 C-474.33371582 46.50242187 -473.66743164 46.00484375 -472.98095703 45.4921875 C-455.15929387 32.24321475 -436.42311283 20.7424727 -417 10 C-416.16807129 9.5373877 -415.33614258 9.07477539 -414.47900391 8.59814453 C-358.52739776 -22.30083106 -293.77500383 -40.11942056 -230 -44 C-229.01563965 -44.06171387 -228.0312793 -44.12342773 -227.01708984 -44.18701172 C-148.57907955 -48.79957292 -71.11882389 -33.20534387 0 0 Z " fill="#01E050" transform="translate(658,45)"/>
<path d="M0 0 C1.43920402 1.3523555 2.87688407 2.7063361 4.3125 4.0625 C5.62044571 5.19279167 6.93286248 6.31793311 8.25 7.4375 C17.16910804 15.24171953 24.98611188 23.76171237 32.3125 33.0625 C33.18358162 34.13258157 34.05603065 35.20155116 34.9296875 36.26953125 C62.94520595 70.79749481 79.41174828 111.14917992 87.5625 154.5625 C87.72580811 155.42149902 87.88911621 156.28049805 88.05737305 157.16552734 C92.9167214 184.24014912 92.79985534 216.1277368 87.3125 243.0625 C87.11914062 244.02720215 86.92578125 244.9919043 86.7265625 245.98583984 C78.3281723 286.55861844 61.85887403 325.93631487 35.3125 358.0625 C34.88259766 358.58714844 34.45269531 359.11179687 34.00976562 359.65234375 C24.85800984 370.79477342 15.41118237 381.81684896 4.3125 391.0625 C3.30906307 391.94810781 2.30796866 392.83637339 1.30859375 393.7265625 C-13.69625066 407.00756708 -30.02396025 417.64026142 -47.6875 427.0625 C-48.56051758 427.53042969 -49.43353516 427.99835938 -50.33300781 428.48046875 C-101.15080932 455.28793848 -163.4606763 464.00456709 -219.6875 452.0625 C-220.59532227 451.88058105 -221.50314453 451.69866211 -222.43847656 451.51123047 C-228.59176171 450.26340044 -234.64545716 448.7675271 -240.6875 447.0625 C-241.59967285 446.80549316 -242.5118457 446.54848633 -243.45166016 446.28369141 C-275.20389169 437.07091883 -305.09390183 420.89298938 -330.6875 400.0625 C-331.27660156 399.5890918 -331.86570312 399.11568359 -332.47265625 398.62792969 C-347.15124579 386.76635875 -361.42823803 373.24421244 -372.6875 358.0625 C-373.41694824 357.09111084 -373.41694824 357.09111084 -374.16113281 356.10009766 C-381.64437975 346.10522704 -388.565793 335.94459127 -394.6875 325.0625 C-395.04763184 324.43649902 -395.40776367 323.81049805 -395.77880859 323.16552734 C-403.10972097 310.36147016 -408.48179928 296.84400993 -413.6875 283.0625 C-413.96078125 282.35416016 -414.2340625 281.64582031 -414.515625 280.91601562 C-424.78201303 254.08081803 -427.90888821 224.71303236 -427.9375 196.1875 C-427.93850708 195.47727692 -427.93951416 194.76705383 -427.94055176 194.03530884 C-427.92776056 180.54642447 -426.85794491 167.38747301 -424.6875 154.0625 C-424.55359863 153.21010742 -424.41969727 152.35771484 -424.28173828 151.47949219 C-418.57874627 116.26610882 -404.16172137 81.27775579 -383.6875 52.0625 C-383.17316406 51.32789551 -382.65882813 50.59329102 -382.12890625 49.83642578 C-375.38122672 40.28175832 -368.39195773 31.20879179 -360.28125 22.7734375 C-358.17466122 20.57167152 -356.19790358 18.33939401 -354.25 16 C-344.48407983 4.80549198 -332.61160472 -4.191792 -320.6875 -12.9375 C-319.83720215 -13.56567627 -319.83720215 -13.56567627 -318.96972656 -14.20654297 C-235.31729693 -75.59455671 -115.927817 -77.89419445 0 0 Z " fill="#FEFEFE" transform="translate(627.6875,261.9375)"/>
<path d="M0 0 C2.27362602 1.02593599 4.55666318 2.02409704 6.84667969 3.01269531 C26.90225132 11.84477587 46.12754494 23.96312395 63.57324219 37.16113281 C64.1787793 37.61794434 64.78431641 38.07475586 65.40820312 38.54541016 C84.09964853 52.74265504 102.22818903 68.37065286 117.57324219 86.16113281 C119.0304435 87.74550805 120.48881559 89.32880713 121.94824219 90.91113281 C176.86306572 152.10737464 207.54179493 234.36152342 209.57324219 316.16113281 C209.59515625 316.92425781 209.61707031 317.68738281 209.63964844 318.47363281 C210.831216 365.50083249 202.57244227 413.49959703 185.31445312 457.27294922 C184.57711202 459.15127468 183.85900179 461.03609291 183.14355469 462.92285156 C179.81746745 471.59148762 175.91284456 479.87317449 171.63525391 488.11083984 C170.57273974 490.16210283 169.52759152 492.22158818 168.48339844 494.28222656 C153.40508622 523.72592028 133.18168271 552.23701792 109.40136719 575.33300781 C107.41794785 577.24913293 107.41794785 577.24913293 105.32324219 579.97363281 C103.32275308 582.4742442 101.09395005 584.19375107 98.57324219 586.16113281 C96.89948644 587.82068011 95.23388989 589.48846884 93.57324219 591.16113281 C84.15392027 600.31133125 74.14805568 608.38546459 63.57324219 616.16113281 C62.89277832 616.66644531 62.21231445 617.17175781 61.51123047 617.69238281 C13.49274602 653.21195522 -45.09259934 676.29325838 -104.42675781 683.16113281 C-105.2060112 683.25266129 -105.98526459 683.34418976 -106.78813171 683.43849182 C-120.3458623 684.99107425 -133.78523242 685.50450512 -147.42724609 685.47680664 C-150.66050073 685.47364869 -153.89283397 685.49722116 -157.12597656 685.52246094 C-177.48641185 685.58512089 -197.44694908 683.24817476 -217.42675781 679.41113281 C-218.08999054 679.28485504 -218.75322327 679.15857727 -219.43655396 679.0284729 C-248.60941909 673.43611869 -276.64826576 663.99102991 -303.42675781 651.16113281 C-304.24450684 650.77344727 -305.06225586 650.38576172 -305.90478516 649.98632812 C-331.62193117 637.73242168 -355.43554044 622.25969676 -377.42675781 604.16113281 C-377.96945312 603.72140137 -378.51214844 603.28166992 -379.07128906 602.82861328 C-388.33879015 595.27842138 -396.83605045 586.95920545 -405.30175781 578.53613281 C-405.83596344 578.00719421 -406.37016907 577.47825562 -406.92056274 576.93328857 C-413.89516923 570.01191108 -420.32500783 562.8795463 -426.42675781 555.16113281 C-427.43931055 553.92943407 -428.45454695 552.69993165 -429.47363281 551.47363281 C-488.73869057 479.22558211 -515.49303856 384.59778077 -507.30566406 291.92285156 C-504.62894191 266.21481335 -499.52808757 240.70616582 -491.42675781 216.16113281 C-490.9049292 214.56857666 -490.9049292 214.56857666 -490.37255859 212.94384766 C-485.13226092 197.18458174 -478.7199673 182.07453281 -471.42675781 167.16113281 C-470.98605957 166.25911133 -470.54536133 165.35708984 -470.09130859 164.42773438 C-460.96186256 145.9521999 -450.17002618 128.36926794 -437.42675781 112.16113281 C-436.60680405 111.07819388 -435.78919506 109.99347659 -434.97363281 108.90722656 C-429.77862763 102.0125284 -424.27410989 95.51503516 -418.42675781 89.16113281 C-417.29718123 87.8734665 -416.1719669 86.58195663 -415.05175781 85.28613281 C-401.50936287 69.79564393 -401.50936287 69.79564393 -394.49707031 63.91894531 C-392.02765285 61.8222701 -389.67384822 59.61724605 -387.30175781 57.41113281 C-380.9473456 51.63201718 -374.28067275 46.33406013 -367.42675781 41.16113281 C-366.75257813 40.65179199 -366.07839844 40.14245117 -365.38378906 39.61767578 C-314.72626952 1.61283152 -256.04548189 -21.51935197 -193.42675781 -29.83886719 C-192.60095215 -29.95601074 -191.77514648 -30.0731543 -190.92431641 -30.19384766 C-126.55639524 -39.03638918 -58.73756645 -26.63849337 0 0 Z M-291.42675781 109.16113281 C-291.96558594 109.53447754 -292.50441406 109.90782227 -293.05957031 110.29248047 C-303.53630286 117.57023273 -313.50728189 125.27287167 -322.93066406 133.88769531 C-324.56838473 135.37932822 -326.22171204 136.85404062 -327.89160156 138.30957031 C-340.07882793 148.97580002 -349.82962332 161.19598586 -359.42675781 174.16113281 C-360.07257813 175.0209375 -360.71839844 175.88074219 -361.38378906 176.76660156 C-387.04716144 212.04593342 -402.19144631 253.47310088 -407.12817383 296.59765625 C-407.31077091 298.16533358 -407.5060729 299.73167917 -407.72338867 301.29492188 C-408.71615307 308.80131884 -408.62479238 316.35338202 -408.61425781 323.91113281 C-408.6139859 324.64212189 -408.61371399 325.37311096 -408.61343384 326.12625122 C-408.59276895 338.23008774 -408.09570639 350.15842044 -406.42675781 362.16113281 C-406.26602783 363.32056396 -406.26602783 363.32056396 -406.10205078 364.50341797 C-400.30554296 404.82585013 -384.92450166 442.90773978 -361.42675781 476.16113281 C-361.02602051 476.72912598 -360.6252832 477.29711914 -360.21240234 477.88232422 C-346.37530909 497.30227939 -329.49132704 515.80254421 -310.42675781 530.16113281 C-309.19564937 531.11994743 -307.96523361 532.07965184 -306.73535156 533.04003906 C-280.77186558 553.12924671 -250.56453783 568.22105952 -218.82080078 576.52929688 C-216.70364779 577.088056 -214.59820832 577.67594542 -212.49316406 578.27832031 C-208.49031629 579.37116129 -204.48622906 580.30768222 -200.42675781 581.16113281 C-199.15251953 581.43618652 -199.15251953 581.43618652 -197.85253906 581.71679688 C-181.84973196 585.01444646 -166.08021125 585.53808353 -149.80175781 585.53613281 C-148.82051941 585.53794556 -147.83928101 585.5397583 -146.82830811 585.54162598 C-134.54998963 585.53905917 -122.57702005 584.94378452 -110.42675781 583.16113281 C-109.36376465 583.01095703 -108.30077148 582.86078125 -107.20556641 582.70605469 C-64.43675152 576.25729182 -21.78479809 557.7254082 11.57324219 530.16113281 C12.09789062 529.73123047 12.62253906 529.30132813 13.16308594 528.85839844 C24.3055156 519.70664266 35.32759115 510.25981518 44.57324219 499.16113281 C45.45885 498.15769588 46.34711558 497.15660148 47.23730469 496.15722656 C78.22833365 461.1436427 97.42974914 417.77954355 106.57324219 372.16113281 C106.75113281 371.2879541 106.92902344 370.41477539 107.11230469 369.51513672 C109.76373612 355.76083618 109.85289458 341.9303361 109.88574219 327.97363281 C109.88950867 327.0929715 109.89327515 326.21231018 109.89715576 325.30496216 C109.93530679 307.69457064 108.66224147 290.35719319 105.01074219 273.09863281 C104.75317139 271.87893799 104.49560059 270.65924316 104.23022461 269.40258789 C93.54123205 221.00425187 68.63079422 178.70105925 34.57324219 143.16113281 C33.79335938 142.34 33.01347656 141.51886719 32.20996094 140.67285156 C27.20304745 135.52364568 21.88101571 130.90163948 16.23388672 126.46679688 C15.05664072 125.54119976 13.8835432 124.61031519 12.71337891 123.67578125 C-16.15425397 100.6582582 -48.83950986 84.77559579 -84.42675781 75.16113281 C-85.2565918 74.93296875 -86.08642578 74.70480469 -86.94140625 74.46972656 C-154.23253873 56.35984854 -234.06214382 69.0590184 -291.42675781 109.16113281 Z " fill="#04FD61" transform="translate(608.4267578125,132.8388671875)"/>
<path d="M0 0 C21.60824894 16.58227965 36.65908968 39.26394682 41.11438274 66.44594097 C41.58601196 70.20781011 41.72799922 73.80626368 41.74092102 77.59590149 C41.74459771 78.29972039 41.7482744 79.00353929 41.7520625 79.72868603 C41.76300945 82.06953855 41.76692784 84.41034654 41.77075195 86.7512207 C41.77702368 88.43731321 41.7836711 90.12340435 41.79066467 91.80949402 C41.81163305 97.33392386 41.82206422 102.85835373 41.83203125 108.3828125 C41.8360823 110.29269105 41.84019932 112.20256947 41.84438133 114.11244774 C41.86342164 123.09326132 41.8776519 132.07406678 41.8859933 141.05489665 C41.89574442 151.38002604 41.92201317 161.70493983 41.96249419 172.02999336 C41.99279318 180.03629611 42.00747538 188.04253758 42.01077431 196.04889649 C42.01311019 200.81811406 42.0218772 205.58710106 42.04723549 210.35625648 C42.07076214 214.85354696 42.07465231 219.35045908 42.06447411 223.84779549 C42.06398446 225.4834495 42.07013265 227.11912373 42.08403015 228.75471878 C42.31866623 258.04781489 31.66904016 283.41173833 11.46875 304.76953125 C-8.11604476 323.71932414 -34.32603521 333.71307524 -61.46923828 333.56982422 C-90.56972005 332.89107795 -115.54512661 320.27310841 -135.51953125 299.45703125 C-150.30464859 283.48578531 -160.46567492 260.74814953 -160.56015015 238.88032532 C-160.5645324 238.15764865 -160.56891465 237.43497198 -160.5734297 236.69039601 C-160.5867355 234.27967853 -160.59297813 231.86899754 -160.59912109 229.45825195 C-160.60702902 227.72466877 -160.61529839 225.9910872 -160.62390137 224.25750732 C-160.65005794 218.57012489 -160.66543012 212.88273537 -160.6796875 207.1953125 C-160.6850512 205.23004846 -160.69042872 203.26478446 -160.69581985 201.29952049 C-160.71744587 193.11470965 -160.73617619 184.92990072 -160.74744225 176.74506855 C-160.76363852 165.05891294 -160.7967141 153.37309205 -160.85384309 141.68706256 C-160.89272982 133.44807174 -160.91209739 125.20916971 -160.91736281 116.97008961 C-160.92099284 112.06160078 -160.93276 107.15346942 -160.96546555 102.24508095 C-160.99587491 97.61478286 -161.00174295 92.98505235 -160.99008179 88.35467529 C-160.98986372 86.67105666 -160.9979426 84.98740913 -161.01573563 83.30388451 C-161.28865902 55.95302375 -150.93866256 30.81690326 -132.20483398 10.91088867 C-97.18518875 -24.61413811 -40.3086333 -28.98818921 0 0 Z " fill="#00EA51" transform="translate(519.40625,280.73046875)"/>
<path d="M0 0 C1.05058594 0.37382812 2.10117187 0.74765625 3.18359375 1.1328125 C24.24549556 9.23560785 40.81610429 25.6821911 50.2734375 45.98828125 C55.0002349 56.65302187 57.16707117 67.07419577 57.11352539 78.68920898 C57.11364593 79.5425007 57.11376646 80.39579241 57.11389065 81.27494144 C57.11314898 84.0153528 57.10555497 86.75569469 57.09765625 89.49609375 C57.09618452 91.19665494 57.09516523 92.89721659 57.09460449 94.59777832 C57.08937841 100.87769249 57.07541714 107.15759694 57.0625 113.4375 C57.041875 127.483125 57.02125 141.52875 57 156 C0.57 156 -55.86 156 -114 156 C-114 47.01466276 -114 47.01466276 -87.9375 19.5 C-65.2534126 -2.65727116 -30.00631319 -11.1566608 0 0 Z " fill="#FBFEFC" transform="translate(488,282)"/>
<path d="M0 0 C1.56911133 -0.04350586 1.56911133 -0.04350586 3.16992188 -0.08789062 C10.91086828 -0.15194683 10.91086828 -0.15194683 14.85546875 2.20703125 C17.70884933 5.48628953 17.89385371 7.83052287 18.2109375 12.14453125 C17.6875 14.3125 17.6875 14.3125 15.19422913 16.53648376 C12.12964951 19.93027797 12.06014946 21.39223753 12.05639648 25.89672852 C12.04386337 27.21322891 12.03133026 28.52972931 12.01841736 29.88612366 C12.03070519 31.32122774 12.0441281 32.75632247 12.05859375 34.19140625 C12.05776339 35.68334628 12.05529771 37.1752862 12.05128479 38.66722107 C12.04842576 41.80210782 12.06310992 44.93628083 12.09057617 48.07104492 C12.12422281 52.02829074 12.11840983 55.98423685 12.10044956 59.94154167 C12.02592673 80.00859488 12.25879672 99.81530173 20.375 118.5625 C20.7160376 119.378396 21.0570752 120.19429199 21.40844727 121.03491211 C26.8673373 133.75993533 33.47975438 144.92470034 42.6875 155.3125 C43.29851562 156.06660156 43.90953125 156.82070313 44.5390625 157.59765625 C62.32094597 179.0494178 91.85124293 193.71483692 119.37109375 197.03125 C155.15084491 199.81164411 188.50943775 192.30018773 216.43359375 169.0234375 C218.90359868 166.83539661 221.30568842 164.59592349 223.6875 162.3125 C224.38488281 161.66667969 225.08226562 161.02085937 225.80078125 160.35546875 C231.20575734 155.20237504 235.48262842 149.46721122 239.6875 143.3125 C240.285625 142.45914063 240.88375 141.60578125 241.5 140.7265625 C259.63500875 113.76692896 261.12274497 83.1049088 261.35705566 51.6661377 C261.38738859 48.00452052 261.43372958 44.34310448 261.47851562 40.68164062 C261.56338624 33.55871083 261.63123216 26.43571822 261.6875 19.3125 C261.07390625 19.19132812 260.4603125 19.07015625 259.828125 18.9453125 C256.50704493 17.96353335 255.45900585 16.22283104 253.6875 13.3125 C253.125 9.8125 253.125 9.8125 253.6875 6.3125 C255.8602422 3.68233839 257.63423788 1.83913106 260.6875 0.3125 C264.45194689 0.01754442 268.22534947 0.0345032 272 0 C273.56911133 -0.04350586 273.56911133 -0.04350586 275.16992188 -0.08789062 C282.91086828 -0.15194683 282.91086828 -0.15194683 286.85546875 2.20703125 C289.70830083 5.48565917 290.07871452 7.89955752 290.046875 12.26953125 C289.44155275 15.71065666 287.36596374 17.27176572 284.6875 19.3125 C284.0275 19.3125 283.3675 19.3125 282.6875 19.3125 C282.68972061 20.13998245 282.69194122 20.9674649 282.69422913 21.82002258 C282.71435782 29.66029907 282.72953784 37.50056673 282.73931217 45.34086323 C282.74450634 49.37056401 282.7515402 53.40024325 282.76293945 57.42993164 C282.77389257 61.32678117 282.77980287 65.22361011 282.78237724 69.12047386 C282.78420929 70.59903474 282.78778625 72.07759463 282.79323006 73.55614662 C282.91041147 106.73567696 273.00331997 138.43386872 251.6875 164.3125 C251.2244043 164.88097656 250.76130859 165.44945312 250.28417969 166.03515625 C226.27602919 195.38373362 191.72986497 215.37732787 153.6875 219.3125 C148.08757957 219.65519403 142.48329143 219.65274646 136.875 219.625 C135.75356094 219.62276428 135.75356094 219.62276428 134.60946655 219.6204834 C123.67477463 219.58130301 113.3239607 219.04252491 102.6875 216.3125 C101.46546875 216.04566406 100.2434375 215.77882813 98.984375 215.50390625 C63.7334904 207.20741144 31.83797045 182.71007214 12.6875 152.3125 C4.62780213 139.25867391 -1.12986745 125.73823579 -5.5625 111.0625 C-5.80895264 110.2785083 -6.05540527 109.4945166 -6.30932617 108.68676758 C-11.65259914 90.13399298 -10.5717739 70.37226394 -10.4498291 51.26702881 C-10.42902546 47.6526529 -10.42016316 44.03824719 -10.41015625 40.42382812 C-10.38898327 33.38664825 -10.35504756 26.34958593 -10.3125 19.3125 C-10.93769531 19.17714844 -11.56289063 19.04179687 -12.20703125 18.90234375 C-14.70289246 18.20313217 -15.66295316 17.27624624 -17.3125 15.3125 C-18.88185594 12.17378812 -18.66451103 9.77394178 -18.3125 6.3125 C-12.72441438 -0.4520247 -8.25921699 0.07549558 0 0 Z " fill="#03EA53" transform="translate(323.3125,436.6875)"/>
<path d="M0 0 C0.98279938 -0.00990463 1.96559875 -0.01980927 2.97817993 -0.03001404 C4.59362953 -0.02326157 4.59362953 -0.02326157 6.24171448 -0.01637268 C7.37689514 -0.02323593 8.51207581 -0.03009918 9.68165588 -0.03717041 C13.44472156 -0.05551421 17.20737333 -0.05158994 20.97047424 -0.0459137 C23.57977434 -0.05047187 26.18907323 -0.05577635 28.79837036 -0.0617981 C34.27187579 -0.07183371 39.74526311 -0.06852187 45.21876526 -0.05836487 C51.54513887 -0.04688461 57.87108851 -0.06095564 64.19740623 -0.08776134 C70.28378549 -0.11258461 76.36996905 -0.11509731 82.45639229 -0.10864449 C85.04601306 -0.10849081 87.63564181 -0.11457305 90.22523308 -0.12693596 C93.84302908 -0.14177276 97.45988586 -0.13122144 101.07765198 -0.11402893 C102.15259415 -0.1236969 103.22753632 -0.13336487 104.33505249 -0.14332581 C111.56340476 -0.07120403 111.56340476 -0.07120403 114.88589478 2.23544312 C116.75932117 5.24784544 116.86454912 6.90231751 116.22438049 10.38768005 C114.17641246 13.33320919 112.54351238 15.12171735 108.93955803 15.8483448 C106.00357018 16.03357243 103.10534647 16.05150781 100.16358948 16.01878357 C99.0476239 16.02593887 97.93165833 16.03309418 96.78187561 16.04046631 C93.09432504 16.05737057 89.40798704 16.03794007 85.72047424 16.0165863 C83.15887349 16.01741477 80.59727278 16.01987332 78.03567505 16.02389526 C72.66814258 16.02675441 67.30103934 16.01256846 61.93360901 15.98460388 C55.7309911 15.95253681 49.52900182 15.9525749 43.32633919 15.96981865 C37.35420593 15.98568877 31.38226536 15.97885062 25.41012764 15.96188164 C22.87075886 15.95669238 20.33137197 15.9571906 17.79200554 15.96342659 C14.24619736 15.9688657 10.70146288 15.94854407 7.15577698 15.92112732 C5.57612907 15.93091614 5.57612907 15.93091614 3.96456909 15.94090271 C-3.13601847 15.8473619 -3.13601847 15.8473619 -6.42782593 13.48153687 C-8.73456766 9.89791177 -8.24257351 7.59026607 -7.77561951 3.38768005 C-5.54437763 0.26131012 -3.7329356 0.01061095 0 0 Z " fill="#00EA51" transform="translate(405.77561950683594,395.61231994628906)"/>
<path d="M0 0 C0.98279938 -0.00990463 1.96559875 -0.01980927 2.97817993 -0.03001404 C4.59362953 -0.02326157 4.59362953 -0.02326157 6.24171448 -0.01637268 C7.37689514 -0.02323593 8.51207581 -0.03009918 9.68165588 -0.03717041 C13.44472156 -0.05551421 17.20737333 -0.05158994 20.97047424 -0.0459137 C23.57977434 -0.05047187 26.18907323 -0.05577635 28.79837036 -0.0617981 C34.27187579 -0.07183371 39.74526311 -0.06852187 45.21876526 -0.05836487 C51.54513887 -0.04688461 57.87108851 -0.06095564 64.19740623 -0.08776134 C70.28378549 -0.11258461 76.36996905 -0.11509731 82.45639229 -0.10864449 C85.04601306 -0.10849081 87.63564181 -0.11457305 90.22523308 -0.12693596 C93.84302908 -0.14177276 97.45988586 -0.13122144 101.07765198 -0.11402893 C102.15259415 -0.1236969 103.22753632 -0.13336487 104.33505249 -0.14332581 C111.56340476 -0.07120403 111.56340476 -0.07120403 114.88589478 2.23544312 C116.75932117 5.24784544 116.86454912 6.90231751 116.22438049 10.38768005 C114.17641246 13.33320919 112.54351238 15.12171735 108.93955803 15.8483448 C106.00357018 16.03357243 103.10534647 16.05150781 100.16358948 16.01878357 C99.0476239 16.02593887 97.93165833 16.03309418 96.78187561 16.04046631 C93.09432504 16.05737057 89.40798704 16.03794007 85.72047424 16.0165863 C83.15887349 16.01741477 80.59727278 16.01987332 78.03567505 16.02389526 C72.66814258 16.02675441 67.30103934 16.01256846 61.93360901 15.98460388 C55.7309911 15.95253681 49.52900182 15.9525749 43.32633919 15.96981865 C37.35420593 15.98568877 31.38226536 15.97885062 25.41012764 15.96188164 C22.87075886 15.95669238 20.33137197 15.9571906 17.79200554 15.96342659 C14.24619736 15.9688657 10.70146288 15.94854407 7.15577698 15.92112732 C5.57612907 15.93091614 5.57612907 15.93091614 3.96456909 15.94090271 C-3.13601847 15.8473619 -3.13601847 15.8473619 -6.42782593 13.48153687 C-8.73456766 9.89791177 -8.24257351 7.59026607 -7.77561951 3.38768005 C-5.54437763 0.26131012 -3.7329356 0.01061095 0 0 Z " fill="#04EA54" transform="translate(405.77561950683594,363.61231994628906)"/>
<path d="M0 0 C0.73397003 -0.0087616 1.46794006 -0.01752319 2.22415161 -0.02655029 C4.64092814 -0.04848742 7.05586241 -0.03401381 9.47265625 -0.01708984 C11.15747426 -0.02045966 12.8422899 -0.02531367 14.52709961 -0.03158569 C18.05443517 -0.03894924 21.58113671 -0.0282688 25.10839844 -0.00488281 C29.62479619 0.02360539 34.13970837 0.00719854 38.65605164 -0.02274513 C42.13402454 -0.04083254 45.61164652 -0.03505363 49.08963013 -0.02210617 C50.75456926 -0.01877611 52.41954049 -0.02284521 54.08444214 -0.03450394 C56.41392108 -0.04723743 58.74101108 -0.02780549 61.0703125 0 C61.75513702 -0.01012115 62.43996155 -0.02024231 63.14553833 -0.03067017 C66.9277714 0.05276627 68.47635063 0.59984968 71.46655273 2.9960022 C73.53515625 5.64697266 73.53515625 5.64697266 74.09765625 8.70947266 C73.4169411 12.26431846 72.33443166 13.42401866 69.53515625 15.64697266 C66.55359828 17.13775164 63.82905635 16.80725916 60.50268555 16.83984375 C59.77890717 16.84802124 59.05512878 16.85619873 58.30941772 16.86462402 C55.90941192 16.88947679 53.50946526 16.90599371 51.109375 16.92041016 C50.29000772 16.92573383 49.47064045 16.93105751 48.62644386 16.93654251 C44.28946493 16.96327372 39.95251477 16.98264859 35.61547852 16.99707031 C31.13616297 17.01371751 26.65758328 17.05849522 22.17854595 17.10944176 C18.73412737 17.14310066 15.28988374 17.15464619 11.84531593 17.16029739 C10.19427683 17.16701379 8.54324939 17.18224612 6.89237022 17.2061882 C4.57957408 17.23781569 2.26876623 17.23788135 -0.04418945 17.23046875 C-1.35942093 17.2385556 -2.6746524 17.24664246 -4.02973938 17.25497437 C-8.33653517 16.49268626 -9.80203082 15.04855195 -12.46484375 11.64697266 C-13.08984375 8.64697266 -13.08984375 8.64697266 -12.46484375 5.64697266 C-8.75073329 0.90321268 -5.8131594 -0.08591381 0 0 Z " fill="#0BEA59" transform="translate(429.46484375,331.35302734375)"/>
<path d="M0 0 C0.93312515 -0.00478363 1.86625031 -0.00956726 2.82765198 -0.01449585 C4.79698374 -0.01789141 6.76637213 -0.00871305 8.7355957 0.01220703 C11.74103323 0.03894796 14.74272607 0.01246381 17.74804688 -0.01953125 C19.66537279 -0.0162265 21.58269638 -0.00981892 23.5 0 C24.84087929 -0.01518173 24.84087929 -0.01518173 26.20884705 -0.03067017 C30.48788695 0.0492079 33.46487326 0.31684368 36.91821289 2.98291016 C39.31640625 5.6640625 39.31640625 5.6640625 39.50390625 9.2265625 C38.06316621 13.39712577 37.08158564 14.40416692 33.31640625 16.6640625 C30.07518028 17.25460145 26.8856306 17.24860719 23.59765625 17.23046875 C22.66215942 17.23666733 21.7266626 17.24286591 20.76281738 17.24925232 C18.7893172 17.2563411 16.81575711 17.25319294 14.84228516 17.24047852 C11.82602798 17.22660675 8.8128706 17.26070389 5.796875 17.29882812 C3.87630133 17.29977932 1.95572378 17.29792048 0.03515625 17.29296875 C-0.86392456 17.30622696 -1.76300537 17.31948517 -2.68933105 17.33314514 C-7.16903532 17.2666527 -9.09426438 17.11576601 -12.75195312 14.31225586 C-14.68359375 11.6640625 -14.68359375 11.6640625 -15.30859375 8.6640625 C-13.55455595 0.24468104 -7.23470535 -0.08172787 0 0 Z " fill="#0CEA59" transform="translate(447.68359375,300.3359375)"/>
</svg>
